<svg width="35" height="35" viewBox="0 0 35 35" fill="none" xmlns="http://www.w3.org/2000/svg">
<path d="M29.587 14.6579C30.9619 14.6579 32.0764 13.5434 32.0764 12.1686C32.0764 10.7937 30.9619 9.6792 29.587 9.6792C28.2122 9.6792 27.0977 10.7937 27.0977 12.1686C27.0977 13.5434 28.2122 14.6579 29.587 14.6579Z" fill="white"/>
<path d="M27.0977 16.7896H32.0749V22.1213C32.0749 23.495 30.9593 24.6092 29.5856 24.6092H27.0977V16.7896ZM2.92578 6.12481V28.8748L19.2781 31.7609V3.23877L2.92578 6.12481ZM15.0124 14.0159L12.1687 14.0873V22.4756H10.0352V14.2288L7.19287 14.3717V12.4525L15.0124 12.0267V14.0159ZM20.6985 14.6561V26.7427H23.5422C24.7206 26.7427 25.6758 25.7875 25.6758 24.6106V14.6561H20.6985ZM22.832 7.54669C21.9774 7.54669 21.2206 7.93169 20.6985 8.52814V12.2542C21.2191 12.8506 21.9774 13.2356 22.832 13.2356C23.5864 13.2356 24.3099 12.936 24.8434 12.4025C25.3768 11.8691 25.6765 11.1456 25.6765 10.3912C25.6765 9.63676 25.3768 8.91326 24.8434 8.37982C24.3099 7.84637 23.5864 7.54669 22.832 7.54669Z" fill="white"/>
</svg>
