<svg width="35" height="35" viewBox="0 0 35 35" fill="none" xmlns="http://www.w3.org/2000/svg">
<path d="M21.3105 8.68115V14.6716L23.4062 15.9896C23.4818 16.0062 23.5602 16.0062 23.6359 15.9896L32.6462 9.9149C32.6396 9.62008 32.5317 9.33651 32.3407 9.11184C32.1497 8.88716 31.8872 8.73508 31.5973 8.68115H21.3105Z" fill="white"/>
<path d="M21.3103 16.9061L23.221 18.2186C23.3105 18.2731 23.4132 18.3019 23.518 18.3019C23.6228 18.3019 23.7255 18.2731 23.815 18.2186C23.4868 18.4166 32.6448 12.3364 32.6448 12.3364V23.3461C32.6687 23.5692 32.6435 23.7948 32.5711 24.0072C32.4987 24.2195 32.3807 24.4135 32.2255 24.5755C32.0702 24.7375 31.8815 24.8636 31.6724 24.9451C31.4634 25.0265 31.239 25.0612 31.0151 25.0469H21.3092V16.9061H21.3103ZM11.4184 14.1444C11.1009 14.1429 10.7889 14.2273 10.5155 14.3886C10.2421 14.55 10.0174 14.7823 9.86527 15.061C9.44977 15.7996 9.25041 16.6403 9.28996 17.4869C9.24677 18.3317 9.44641 19.1713 9.86527 19.9063C10.0168 20.1735 10.2359 20.3961 10.5007 20.5517C10.7655 20.7074 11.0666 20.7907 11.3737 20.7931C11.6809 20.7955 11.9832 20.7171 12.2505 20.5656C12.5177 20.4142 12.7403 20.1951 12.896 19.9303C13.3103 19.1987 13.5058 18.3636 13.4593 17.5241C13.5068 16.6583 13.3177 15.7958 12.9125 15.0292C12.7676 14.7597 12.5519 14.5348 12.2886 14.3788C12.0253 14.2229 11.7244 14.1418 11.4184 14.1444Z" fill="white"/>
<path d="M2.35449 5.63828V29.0741L20.1826 32.8125V2.1875L2.35449 5.63828ZM14.2851 21.3183C13.9516 21.7884 13.5082 22.1699 12.9934 22.4293C12.4787 22.6888 11.9083 22.8184 11.332 22.8069C10.7702 22.8169 10.2143 22.691 9.71155 22.44C9.20882 22.189 8.77414 21.8203 8.44449 21.3653C7.66266 20.2738 7.27156 18.9506 7.33434 17.6094C7.26783 16.2024 7.666 14.8127 8.46746 13.6544C8.80518 13.1752 9.25559 12.7865 9.77898 12.5226C10.3024 12.2586 10.8827 12.1274 11.4687 12.1406C12.0265 12.1294 12.5784 12.2553 13.0761 12.5072C13.5739 12.7592 14.0022 13.1294 14.3234 13.5855C15.0974 14.7007 15.4819 16.0401 15.4171 17.3961C15.4853 18.7929 15.0871 20.1727 14.2851 21.3183Z" fill="white"/>
</svg>
